# CAL-HULL-CAD-001 Rev B
# AISI 316L t=0.008 m flat plate — no bend
# units: meters
mtllib CAL-HULL-CAD-001.mtl
o Calypso_OML
usemtl Steel316L
v 69.5 9.188 8.5
v 69.5 11.813 8.5
v 69.5 12.25 7.667
v 69.5 12.25 5.333
v 69.5 11.813 4.5
v 69.5 9.188 4.5
v 69.5 8.75 5.333
v 69.5 8.75 7.667
v 66.25 6.75 10.25
v 66.25 14.25 10.25
v 66.25 15.5 8.688
v 66.25 15.5 4.313
v 66.25 14.25 2.75
v 66.25 6.75 2.75
v 66.25 5.5 4.313
v 66.25 5.5 8.688
v 59.5 4.125 11.75
v 59.5 16.875 11.75
v 59.5 19 9.563
v 59.5 19 3.438
v 59.5 16.875 1.25
v 59.5 4.125 1.25
v 59.5 2 3.438
v 59.5 2 9.563
v 52.5 3 12.5
v 52.5 18 12.5
v 52.5 20.5 10
v 52.5 20.5 3
v 52.5 18 0.5
v 52.5 3 0.5
v 52.5 0.5 3
v 52.5 0.5 10
v 28.5 3 12.5
v 28.5 18 12.5
v 28.5 20.5 10
v 28.5 20.5 3
v 28.5 18 0.5
v 28.5 3 0.5
v 28.5 0.5 3
v 28.5 0.5 10
v 4.5 3 12.5
v 4.5 18 12.5
v 4.5 20.5 10
v 4.5 20.5 3
v 4.5 18 0.5
v 4.5 3 0.5
v 4.5 0.5 3
v 4.5 0.5 10
v 0.5 3 12.5
v 0.5 18 12.5
v 0.5 20.5 10
v 0.5 20.5 3
v 0.5 18 0.5
v 0.5 3 0.5
v 0.5 0.5 3
v 0.5 0.5 10
f 1 2 10 9
f 2 3 11 10
f 3 4 12 11
f 4 5 13 12
f 5 6 14 13
f 6 7 15 14
f 7 8 16 15
f 8 1 9 16
f 9 10 18 17
f 10 11 19 18
f 11 12 20 19
f 12 13 21 20
f 13 14 22 21
f 14 15 23 22
f 15 16 24 23
f 16 9 17 24
f 17 18 26 25
f 18 19 27 26
f 19 20 28 27
f 20 21 29 28
f 21 22 30 29
f 22 23 31 30
f 23 24 32 31
f 24 17 25 32
f 25 26 34 33
f 26 27 35 34
f 27 28 36 35
f 28 29 37 36
f 29 30 38 37
f 30 31 39 38
f 31 32 40 39
f 32 25 33 40
f 33 34 42 41
f 34 35 43 42
f 35 36 44 43
f 36 37 45 44
f 37 38 46 45
f 38 39 47 46
f 39 40 48 47
f 40 33 41 48
f 41 42 50 49
f 42 43 51 50
f 43 44 52 51
f 44 45 53 52
f 45 46 54 53
f 46 47 55 54
f 47 48 56 55
f 48 41 49 56
o Calypso_IML
v 69.492 9.192 8.492
v 69.492 11.808 8.492
v 69.492 12.242 7.665
v 69.492 12.242 5.335
v 69.492 11.808 4.508
v 69.492 9.192 4.508
v 69.492 8.758 5.335
v 69.492 8.758 7.665
v 66.25 6.752 10.242
v 66.25 14.248 10.242
v 66.25 15.492 8.688
v 66.25 15.492 4.312
v 66.25 14.248 2.758
v 66.25 6.752 2.758
v 66.25 5.508 4.312
v 66.25 5.508 8.688
v 59.5 4.124 11.742
v 59.5 16.876 11.742
v 59.5 18.992 9.565
v 59.5 18.992 3.435
v 59.5 16.876 1.258
v 59.5 4.124 1.258
v 59.5 2.008 3.435
v 59.5 2.008 9.565
v 52.5 2.998 12.492
v 52.5 18.002 12.492
v 52.5 20.492 10.003
v 52.5 20.492 2.997
v 52.5 18.002 0.508
v 52.5 2.998 0.508
v 52.5 0.508 2.997
v 52.5 0.508 10.003
v 28.5 2.998 12.492
v 28.5 18.002 12.492
v 28.5 20.492 10.003
v 28.5 20.492 2.997
v 28.5 18.002 0.508
v 28.5 2.998 0.508
v 28.5 0.508 2.997
v 28.5 0.508 10.003
v 4.5 2.998 12.492
v 4.5 18.002 12.492
v 4.5 20.492 10.003
v 4.5 20.492 2.997
v 4.5 18.002 0.508
v 4.5 2.998 0.508
v 4.5 0.508 2.997
v 4.5 0.508 10.003
v 0.508 2.998 12.492
v 0.508 18.002 12.492
v 0.508 20.492 10.003
v 0.508 20.492 2.997
v 0.508 18.002 0.508
v 0.508 2.998 0.508
v 0.508 0.508 2.997
v 0.508 0.508 10.003
f 57 58 66 65
f 58 59 67 66
f 59 60 68 67
f 60 61 69 68
f 61 62 70 69
f 62 63 71 70
f 63 64 72 71
f 64 57 65 72
f 65 66 74 73
f 66 67 75 74
f 67 68 76 75
f 68 69 77 76
f 69 70 78 77
f 70 71 79 78
f 71 72 80 79
f 72 65 73 80
f 73 74 82 81
f 74 75 83 82
f 75 76 84 83
f 76 77 85 84
f 77 78 86 85
f 78 79 87 86
f 79 80 88 87
f 80 73 81 88
f 81 82 90 89
f 82 83 91 90
f 83 84 92 91
f 84 85 93 92
f 85 86 94 93
f 86 87 95 94
f 87 88 96 95
f 88 81 89 96
f 89 90 98 97
f 90 91 99 98
f 91 92 100 99
f 92 93 101 100
f 93 94 102 101
f 94 95 103 102
f 95 96 104 103
f 96 89 97 104
f 97 98 106 105
f 98 99 107 106
f 99 100 108 107
f 100 101 109 108
f 101 102 110 109
f 102 103 111 110
f 103 104 112 111
f 104 97 105 112
